<svg width="263" height="32" viewBox="0 0 263 32" fill="none" xmlns="http://www.w3.org/2000/svg">
<g clip-path="url(#clip0_3263_10271)">
<path d="M18.5225 20.968V24.8189C18.4516 26.5318 17.3294 27.3705 16.467 27.6422C15.2739 28.032 13.9509 27.6186 13.1949 26.6145C13.1949 26.6145 12.1554 25.256 10.7969 23.4723L18.5225 20.9561V20.968ZM10.7851 4.79625L13.0768 1.7958C13.9982 0.425512 15.8528 0.0711286 17.2231 0.992526C18.0381 1.54773 18.5343 2.46913 18.5343 3.44959V7.31237L10.7851 4.79625ZM2.98864 4.5718C1.33485 4.5718 0 5.90665 0 7.54863C0 8.12745 0.165379 8.68265 0.484324 9.17879L2.72875 12.9589C3.17764 13.6795 3.16583 14.5891 2.72875 15.3096L0.531576 19.0779C-0.389822 20.4482 -0.0236256 22.3028 1.34666 23.2124C2.13812 23.744 3.13039 23.8621 4.02816 23.5431L24.3462 16.928C25.5156 16.5145 26.2953 15.3923 26.2953 14.152C26.2953 12.8053 25.3975 11.624 24.0981 11.2697L3.91003 4.71356C3.61471 4.61905 3.30758 4.5718 2.98864 4.5718Z" fill="#231F20"/>
<path d="M45.2075 10.0527C47.4283 10.0291 49.4719 11.2812 50.4524 13.2776V13.4548L52.0235 12.935V12.6751C50.2515 8.91866 45.7745 7.3003 42.018 9.07222C41.1439 9.48567 40.3642 10.0527 39.7145 10.7615C38.2261 12.2971 37.4347 14.388 37.5174 16.5261C37.4583 18.676 38.2498 20.7551 39.7145 22.3144C42.6559 25.3266 47.4755 25.3857 50.4996 22.4443C51.1257 21.83 51.6455 21.1095 52.0353 20.318V20.0817L50.4642 19.5265V19.7155C49.4837 21.7119 47.4401 22.9641 45.2193 22.9404C44.416 22.9641 43.6009 22.8105 42.8567 22.4916C42.1007 22.1726 41.4038 21.7001 40.8368 21.0976C39.6791 19.8573 39.0648 18.2035 39.1357 16.5143C39.0648 14.8132 39.6791 13.1476 40.8368 11.9073C41.4038 11.3048 42.0889 10.8323 42.8567 10.5134C43.6009 10.1826 44.4042 10.0291 45.2193 10.0409" fill="#231F20"/>
<path d="M59.064 9.8164C58.5561 10.2771 58.0954 10.7851 57.7056 11.3403V8.58787H56.1108V24.3107H57.6819V15.2503C57.6701 14.5533 57.8001 13.8682 58.0718 13.2303C58.3435 12.6042 58.7569 12.0372 59.2767 11.5765C60.3634 10.5724 61.8046 10.0408 63.2812 10.0881H64.0963V8.30436H63.4702C61.8755 8.26893 60.3044 8.81231 59.064 9.82821" fill="#231F20"/>
<path d="M73.3693 9.99345C74.8341 9.99345 76.2398 10.5368 77.303 11.5409C78.4134 12.5686 79.1103 13.9625 79.2875 15.4746H67.4511C67.5928 14.0098 68.2544 12.6513 69.3057 11.6236C69.8255 11.0802 70.4633 10.6668 71.1721 10.3951C71.8573 10.1116 72.6015 9.96982 73.3457 10.0053H73.3693V9.99345ZM73.3693 8.36328C72.3652 8.36328 71.3611 8.55229 70.4397 8.94211C69.4947 9.36737 68.656 9.96982 67.9472 10.7258C66.4943 12.2851 65.7028 14.3524 65.7737 16.4905C65.7737 17.5536 65.9627 18.605 66.3289 19.6091C66.7187 20.5777 67.2975 21.4637 68.0063 22.2315C70.487 24.724 74.3143 25.2674 77.3856 23.5663C78.5787 22.9285 79.5946 21.9834 80.3152 20.8376L80.4688 20.5777L78.9213 19.9989V20.1524C77.8345 21.9952 75.8145 23.082 73.6764 22.9521C72.0108 23.0348 70.3925 22.4087 69.223 21.2274C68.1126 20.0934 67.4629 18.5932 67.392 17.0102H80.8114V16.8803C80.835 16.7504 80.835 16.6204 80.8114 16.4905C80.8586 14.3642 80.0908 12.2969 78.6614 10.7258C77.9645 9.98163 77.114 9.37918 76.1689 8.96573C75.283 8.57591 74.3261 8.36328 73.3693 8.36328Z" fill="#231F20"/>
<path d="M91.7854 22.916C90.9939 22.9396 90.2025 22.7861 89.4819 22.4671C88.7495 22.1364 88.0998 21.6639 87.5682 21.0732C85.2883 18.4271 85.2883 14.5171 87.5682 11.8829C89.7418 9.55574 93.3801 9.4258 95.719 11.5875C95.8135 11.682 95.9199 11.7765 96.0144 11.8829C98.2942 14.5289 98.2942 18.439 96.0144 21.0732C95.4828 21.6639 94.8331 22.1364 94.1007 22.4671C93.3683 22.7861 92.5886 22.9396 91.7972 22.916M97.7745 11.6466C97.1011 10.6425 96.2152 9.80381 95.152 9.21317C94.1007 8.64615 92.9312 8.36265 91.7499 8.37446C90.7577 8.35083 89.7772 8.55165 88.8676 8.95329C87.9462 9.37855 87.1075 9.981 86.4342 10.737C85.7372 11.5048 85.2057 12.3908 84.8395 13.3595C84.4733 14.3517 84.2961 15.3913 84.3197 16.4544C84.2488 18.5807 85.0166 20.6598 86.446 22.2427C87.769 23.7429 89.6827 24.5934 91.6791 24.5698C92.8722 24.5698 94.0298 24.2863 95.0811 23.7311C96.1325 23.1404 97.0303 22.3017 97.7036 21.2977V24.3926H99.2747V1.81836H97.7036L97.7863 11.6466H97.7745Z" fill="#231F20"/>
<path d="M105.441 3.73242C105.11 3.73242 104.803 3.86236 104.579 4.09862C104.342 4.34669 104.212 4.67745 104.212 5.02002C104.212 5.35077 104.342 5.66972 104.579 5.90598C104.791 6.15404 105.11 6.30761 105.441 6.2958C105.595 6.33124 105.76 6.33124 105.913 6.2958C106.055 6.23673 106.197 6.14223 106.303 6.03592C106.528 5.77604 106.658 5.43346 106.646 5.09089C106.669 4.92551 106.669 4.76013 106.646 4.59476C106.575 4.453 106.48 4.32306 106.386 4.20493C106.28 4.08681 106.138 3.9923 105.996 3.92143C105.831 3.8033 105.642 3.74423 105.441 3.73242Z" fill="#231F20"/>
<path d="M106.221 8.58594H104.649V24.3088H106.221V8.58594Z" fill="#231F20"/>
<path d="M113.852 5.51758H112.281V8.63615H109.658V10.2073H112.281V20.0591C112.245 21.1932 112.623 22.3036 113.356 23.1777C113.686 23.5675 114.076 23.8865 114.537 24.1227C114.998 24.3235 115.494 24.4417 116.002 24.4417H118.364V22.7879H116.061C114.702 22.5752 113.745 21.3467 113.864 19.9882V10.16H118.4V8.5889H113.864V5.52939L113.852 5.51758Z" fill="#231F20"/>
<path d="M128.913 16.2305L124.849 14.683C123.845 14.3995 123.148 13.4781 123.148 12.4268C123.148 11.0092 124.613 9.80434 126.574 9.80434C128.098 9.61534 129.539 10.5131 130.059 11.9543V12.1905L131.583 11.7653V11.529C130.945 9.37908 128.866 7.99698 126.633 8.23324C123.668 8.23324 121.601 9.93428 121.601 12.3677C121.577 14.0215 122.64 15.4981 124.223 16.0061L128.181 17.5772C129.598 18.1324 130.271 18.912 130.271 20.0697C130.271 21.6998 128.641 22.8457 126.444 22.8457C124.731 23.0701 123.101 22.0424 122.57 20.4122V20.1523L121.046 20.5422V20.7784C121.695 23.1646 123.987 24.7121 126.444 24.4404C127.814 24.4758 129.161 24.0506 130.271 23.2355C130.756 22.8693 131.157 22.3968 131.429 21.8416C131.689 21.2746 131.819 20.6603 131.819 20.0342C131.783 18.2623 130.602 16.7148 128.913 16.2069" fill="#231F20"/>
<path d="M138.611 5.51758H137.04V8.63615H134.418V10.2073H137.04V20.0591C137.005 21.1932 137.383 22.3036 138.115 23.1777C138.446 23.5675 138.836 23.8865 139.296 24.1227C139.757 24.3235 140.253 24.4417 140.761 24.4417H143.195V22.7879H140.891C139.639 22.7879 138.694 21.583 138.694 19.9882V10.16H143.195V8.5889H138.611V5.52939V5.51758Z" fill="#231F20"/>
<path d="M152.574 22.9159C151.783 22.9395 150.991 22.786 150.271 22.467C149.538 22.1599 148.877 21.6756 148.357 21.0731C147.223 19.8091 146.609 18.1672 146.656 16.4661C146.632 14.7651 147.27 13.1113 148.44 11.8828C149.526 10.7133 151.062 10.04 152.657 10.0518C154.251 10.0518 155.775 10.7251 156.874 11.8828C158.008 13.1349 158.61 14.7769 158.551 16.4661C158.61 18.1672 158.008 19.8091 156.874 21.0731C156.33 21.6638 155.669 22.1363 154.937 22.467C154.192 22.7978 153.389 22.9513 152.574 22.9159ZM158.551 11.6229C157.878 10.6188 156.98 9.7919 155.929 9.21307C154.889 8.64606 153.708 8.35074 152.527 8.37436C150.519 8.35074 148.617 9.21307 147.282 10.7015C146.573 11.4575 146.018 12.3553 145.652 13.3239C145.286 14.3162 145.12 15.3557 145.156 16.4189C145.085 18.5452 145.853 20.6242 147.282 22.2071C148.605 23.7074 150.519 24.5461 152.527 24.5106C153.72 24.5343 154.889 24.2508 155.929 23.6719C156.992 23.0931 157.89 22.2662 158.551 21.2621V24.3807H160.122V8.65787H158.551V11.6229Z" fill="#231F20"/>
<path d="M168.368 9.81371C167.836 10.2508 167.375 10.7705 166.974 11.3376V8.58518H165.403V24.308H166.974V15.2476C166.974 14.5506 167.104 13.8655 167.387 13.2276C167.647 12.5897 168.049 12.0227 168.568 11.5738C169.655 10.5697 171.096 10.0382 172.573 10.0854H173.412V8.30167H172.786C171.179 8.25442 169.608 8.79781 168.356 9.82552" fill="#231F20"/>
<path d="M190.635 21.2392C188.178 21.1092 186.288 19.0183 186.418 16.5613C186.418 16.5495 186.418 16.5377 186.418 16.5258C186.276 14.0688 188.142 11.9661 190.599 11.8125C190.611 11.8125 190.623 11.8125 190.635 11.8125C193.045 11.8716 194.958 13.8916 194.887 16.3014C194.887 16.3723 194.887 16.455 194.876 16.5258C195.053 18.9475 193.222 21.062 190.8 21.2273C190.741 21.2273 190.682 21.2273 190.635 21.2273M194.935 9.91068C193.671 8.78847 192.041 8.15058 190.351 8.12695C186.11 8.29233 182.815 11.848 182.968 16.0888C182.968 16.1951 182.968 16.3014 182.992 16.4077C182.638 20.6485 185.792 24.3695 190.032 24.7239C190.139 24.7239 190.245 24.7357 190.351 24.7476C192.041 24.7476 193.682 24.1333 194.958 23.0229V23.6017C194.899 25.9643 192.938 27.8189 190.576 27.7598C189.17 27.7244 187.859 26.992 187.103 25.7989V25.6099L183.724 26.6612V26.9211C185.036 29.6617 187.812 31.3863 190.847 31.3745C195.029 31.3391 198.384 27.9134 198.349 23.7317C198.349 23.6608 198.349 23.5899 198.349 23.519V8.57584H194.946V9.91068H194.935Z" fill="#231F20"/>
<path d="M205.283 10.3122V8.55211H201.904V24.2749H205.283V15.5807C205.224 13.5844 206.795 11.9188 208.791 11.8597C208.838 11.8597 208.897 11.8597 208.945 11.8597C209.346 11.8361 209.736 11.9069 210.102 12.0723L210.445 12.2259V8.13867H209.819C208.047 8.09142 206.358 8.9065 205.283 10.3122Z" fill="#231F20"/>
<path d="M219.541 21.241C217.084 21.2056 215.123 19.1738 215.158 16.7167C215.158 16.6576 215.158 16.5868 215.158 16.5277C214.969 14.1061 216.788 11.9916 219.21 11.8026C221.632 11.6136 223.746 13.4328 223.935 15.8544C223.947 16.0788 223.947 16.3033 223.935 16.5277C224.077 18.9848 222.21 21.0874 219.753 21.241C219.682 21.241 219.612 21.241 219.541 21.241ZM219.541 8.14062C215.194 8.14062 211.673 11.649 211.673 15.9843C211.673 16.1261 211.673 16.2678 211.673 16.4096C211.673 20.7449 215.194 24.2651 219.529 24.2651C223.864 24.2651 227.384 20.7449 227.384 16.4096C227.609 12.0743 224.289 8.37688 219.954 8.14062C219.812 8.14062 219.671 8.14062 219.529 8.14062" fill="#231F20"/>
<path d="M240.674 17.564C240.674 19.5958 239.032 21.226 237 21.226H236.976C236.516 21.226 236.043 21.1433 235.618 20.9661C235.181 20.7653 234.791 20.4936 234.46 20.151C234.13 19.7967 233.882 19.3832 233.728 18.9225C233.551 18.4736 233.456 17.9893 233.468 17.505V8.53906H230.113V18.4382C229.936 21.734 232.476 24.5454 235.76 24.7226C235.89 24.7226 236.008 24.7226 236.138 24.7226C237.898 24.7698 239.563 23.9902 240.674 22.6317V24.3328H244.029V8.63356H240.674V17.564Z" fill="#231F20"/>
<path d="M255.274 11.6728C257.708 11.7673 259.598 13.8109 259.503 16.2444C259.503 16.3034 259.503 16.3625 259.503 16.4216C259.692 18.8314 257.897 20.934 255.487 21.123C255.416 21.123 255.357 21.123 255.286 21.123C252.829 20.9931 250.939 18.9022 251.069 16.4452C251.069 16.4334 251.069 16.4216 251.069 16.4097C250.915 13.9409 252.806 11.8146 255.274 11.6728C255.274 11.6728 255.274 11.6728 255.286 11.6728H255.274ZM255.605 8.14079C253.916 8.12898 252.286 8.74324 251.022 9.86546V8.50699H247.643V30.9277H251.022V23.0722C252.286 24.1826 253.916 24.7968 255.605 24.7968C259.858 24.6314 263.165 21.064 263.012 16.8114C263.012 16.7169 263.012 16.6224 263 16.5279C263.378 12.2871 260.248 8.54243 256.019 8.16442C255.889 8.15261 255.747 8.14079 255.617 8.14079" fill="#231F20"/>
</g>
<defs>
<clipPath id="clip0_3263_10271">
<rect width="263" height="30.9023" fill="white" transform="translate(0 0.470703)"/>
</clipPath>
</defs>
</svg>
