<?xml version="1.0" encoding="utf-8"?>
<!-- Generator: Adobe Illustrator 24.0.2, SVG Export Plug-In . SVG Version: 6.00 Build 0)  -->
<svg version="1.1" id="Layer_1" xmlns="http://www.w3.org/2000/svg" xmlns:xlink="http://www.w3.org/1999/xlink" x="0px" y="0px"
	 viewBox="0 0 1627.8 189" style="enable-background:new 0 0 1627.8 189;" xml:space="preserve">
<style type="text/css">
	.st0{fill:#202020;}
	.st1{fill:#FF5A59;}
</style>
<g>
	<path class="st0" d="M158.41,158.37H82.16v-8.8H52.83v8.8c0,16.2,13.13,29.33,29.33,29.33h76.27c16.19,0,29.32-13.12,29.32-29.32
		V90.92l-29.33,29.33V158.37z"/>
	<path class="st1" d="M105.62,0H29.36C13.19,0,0.04,13.16,0.04,29.33L0,99.72l29.31-29.33h0.06V29.33h76.25v8.8h29.33v-8.8
		C134.95,13.13,121.82,0,105.62,0"/>
	<path class="st1" d="M105.62,96.78v8.8H29.37V90.84L0,120.21l29.37,29.37v-14.66h76.27c16.19,0,29.32-13.12,29.32-29.32v-8.81
		H105.62z"/>
	<path class="st0" d="M187.74,67.46l-29.33-29.33v14.66H82.15c-16.19,0-29.32,13.12-29.32,29.32v8.81h29.33v-8.8h76.25v14.66
		L187.74,67.46z"/>
	<path class="st0" d="M307.14,51.69c5.68-3.71,12.26-5.56,19.71-5.56c4.14,0,8.01,0.57,11.63,1.72c3.62,1.15,6.83,2.83,9.64,5.06
		c2.81,2.22,5.15,4.91,7.04,8.05c1.89,3.15,3.14,6.77,3.77,10.85h26.22c-1.04-7.77-3.23-14.68-6.58-20.73
		c-3.35-6.04-7.61-11.15-12.8-15.33c-5.19-4.18-11.12-7.36-17.79-9.54c-6.68-2.18-13.88-3.27-21.6-3.27
		c-12.05,0-22.85,2.8-32.42,8.39c-9.57,5.59-17.15,13.68-22.72,24.26c-5.57,10.58-8.36,23.33-8.36,38.25
		c0,14.88,2.77,27.6,8.29,38.19c5.53,10.58,13.07,18.68,22.62,24.3c9.55,5.62,20.41,8.43,32.59,8.43c8.36,0,15.94-1.25,22.75-3.74
		c6.81-2.5,12.73-5.95,17.76-10.38c5.03-4.43,9.11-9.54,12.24-15.33c3.12-5.8,5.13-11.95,6.03-18.47l-26.22-0.07
		c-0.72,3.96-2.04,7.47-3.98,10.55c-1.93,3.08-4.31,5.69-7.14,7.82c-2.83,2.14-6.03,3.74-9.61,4.82c-3.57,1.08-7.41,1.62-11.49,1.62
		c-7.32,0-13.83-1.81-19.52-5.43c-5.68-3.62-10.13-8.97-13.34-16.08c-3.21-7.1-4.82-15.84-4.82-26.22c0-10.2,1.59-18.85,4.78-25.95
		C297.02,60.8,301.46,55.4,307.14,51.69"/>
	<polygon class="st0" points="446.28,85.56 444.93,85.56 411.7,24.83 382.44,24.83 432.73,111.98 432.73,162.87 458.54,162.87 
		458.54,111.98 508.76,24.83 479.57,24.83 	"/>
	<path class="st0" d="M608.95,95.81c-4.54-2.74-9.28-4.22-14.22-4.45v-1.35c4.54-1.08,8.64-2.86,12.3-5.36
		c3.66-2.49,6.57-5.75,8.73-9.77c2.16-4.02,3.23-8.8,3.23-14.32c0-6.87-1.66-13-4.99-18.37c-3.33-5.37-8.31-9.61-14.96-12.71
		c-6.65-3.1-14.99-4.65-25.01-4.65h-53.45v138.05h56.62c10.51,0,19.26-1.65,26.22-4.95c6.97-3.3,12.2-7.8,15.7-13.48
		c3.51-5.68,5.26-12.12,5.26-19.31c0-6.92-1.44-12.85-4.31-17.8C617.19,102.39,613.48,98.55,608.95,95.81 M546.53,46.13h24.6
		c7.19,0,12.64,1.69,16.34,5.06c3.71,3.37,5.56,7.68,5.56,12.94c0,3.95-0.99,7.37-2.97,10.24c-1.98,2.88-4.65,5.09-8.02,6.64
		c-3.37,1.55-7.19,2.33-11.46,2.33h-24.06V46.13z M592.02,136.25c-3.95,3.42-10.38,5.12-19.27,5.12h-26.22v-39.64h26.89
		c5.08,0,9.44,0.92,13.08,2.77c3.64,1.84,6.46,4.37,8.46,7.58c2,3.21,3,6.84,3,10.89C597.95,128.41,595.98,132.83,592.02,136.25"/>
	<polygon class="st0" points="662.51,104.64 722.43,104.64 722.43,82.93 662.51,82.93 662.51,46.47 727.08,46.47 727.08,24.83 
		636.56,24.83 636.56,162.87 727.55,162.87 727.55,141.24 662.51,141.24 	"/>
	<path class="st0" d="M821.84,107.37c7.32-3.53,12.89-8.54,16.68-15.03c3.8-6.49,5.7-14.21,5.7-23.15c0-8.85-1.87-16.62-5.6-23.29
		c-3.73-6.67-9.24-11.85-16.51-15.54c-7.28-3.68-16.18-5.53-26.69-5.53h-52.44v138.05h25.95v-50.22h24.58l26.92,50.22h28.85
		l-29.83-54.55C820.23,108,821.08,107.73,821.84,107.37 M768.93,46.33h22.24c6.07,0,11.06,0.9,15,2.7c3.93,1.8,6.84,4.41,8.73,7.82
		c1.89,3.42,2.83,7.53,2.83,12.34c0,4.81-0.95,8.86-2.83,12.17c-1.89,3.3-4.77,5.8-8.66,7.48c-3.89,1.68-8.87,2.53-14.93,2.53
		h-22.38V46.33z"/>
	<polygon class="st0" points="949.96,117.31 948.68,117.31 884.98,24.83 861.79,24.83 861.79,162.88 887.75,162.88 887.75,70.39 
		888.89,70.39 952.86,162.88 975.71,162.88 975.71,24.83 949.96,24.83 	"/>
	<polygon class="st0" points="1019.23,104.64 1079.15,104.64 1079.15,82.93 1019.23,82.93 1019.23,46.47 1083.81,46.47 
		1083.81,24.83 993.28,24.83 993.28,162.87 1084.28,162.87 1084.28,141.24 1019.23,141.24 	"/>
	<polygon class="st0" points="1100.67,46.47 1143.27,46.47 1143.27,162.87 1168.95,162.87 1168.95,46.47 1211.55,46.47 
		1211.55,24.83 1100.67,24.83 	"/>
	<rect x="1227.55" y="24.83" class="st0" width="25.95" height="138.05"/>
	<path class="st0" d="M1363.89,116.77c-0.72,3.95-2.04,7.47-3.98,10.55c-1.93,3.08-4.31,5.68-7.14,7.82
		c-2.83,2.14-6.04,3.74-9.6,4.82c-3.57,1.08-7.41,1.62-11.49,1.62c-7.32,0-13.83-1.81-19.52-5.43c-5.68-3.61-10.13-8.97-13.34-16.07
		c-3.21-7.1-4.82-15.84-4.82-26.22c0-10.2,1.59-18.85,4.78-25.95c3.19-7.1,7.63-12.5,13.32-16.21c5.68-3.71,12.26-5.56,19.71-5.56
		c4.14,0,8.01,0.57,11.63,1.72c3.62,1.15,6.83,2.83,9.64,5.06c2.81,2.22,5.16,4.91,7.04,8.05c1.89,3.14,3.14,6.76,3.77,10.85h26.22
		c-1.03-7.77-3.22-14.68-6.57-20.73c-3.35-6.04-7.61-11.16-12.8-15.33c-5.19-4.18-11.12-7.36-17.79-9.54
		c-6.68-2.18-13.88-3.27-21.61-3.27c-12.04,0-22.85,2.8-32.42,8.39c-9.57,5.59-17.15,13.68-22.72,24.27
		c-5.57,10.58-8.36,23.33-8.36,38.25c0,14.87,2.76,27.6,8.29,38.19c5.53,10.58,13.07,18.68,22.61,24.3s20.41,8.43,32.59,8.43
		c8.36,0,15.94-1.25,22.75-3.74c6.81-2.49,12.73-5.95,17.76-10.38s9.11-9.54,12.24-15.34c3.12-5.8,5.13-11.95,6.03-18.47
		L1363.89,116.77z"/>
	<path class="st0" d="M1488.61,162.88h27.7l-48.46-138.05h-32.29l-48.46,138.05h27.7l11.19-33.5h51.45L1488.61,162.88z
		 M1432.9,108.68l18.3-54.8h1.08l18.27,54.8H1432.9z"/>
</g>
</svg>
