<?xml version="1.0" encoding="UTF-8" standalone="no"?>
<!DOCTYPE svg PUBLIC "-//W3C//DTD SVG 1.1//EN" "http://www.w3.org/Graphics/SVG/1.1/DTD/svg11.dtd">
<svg width="100%" height="100%" viewBox="0 0 112 17" version="1.1" xmlns="http://www.w3.org/2000/svg" xmlns:xlink="http://www.w3.org/1999/xlink" xml:space="preserve" xmlns:serif="http://www.serif.com/" style="fill-rule:evenodd;clip-rule:evenodd;stroke-linejoin:round;stroke-miterlimit:2;">
    <path d="M7.223,9.878L11.745,9.878L11.745,13.524C10.582,14.139 9.242,14.688 7.069,14.688C4.237,14.688 1.932,13.195 1.932,10.713L1.932,6.518C1.932,4.125 4.369,2.675 7.201,2.675C9.242,2.675 11.13,3.224 12.382,4.081L13.172,2.631C11.767,1.643 9.506,0.984 7.135,0.984C3.271,0.984 0,3.027 0,6.343L0,10.889C0,14.205 3.073,16.357 7.069,16.357C10.164,16.357 12.14,15.457 13.677,14.556L13.677,8.275L7.223,8.275L7.223,9.878Z" style="fill:rgb(115,115,115);fill-rule:nonzero;"/>
    <path d="M30.347,5.794L30.347,5.267C30.347,2.719 28.327,1.204 25.254,1.204L17.57,1.204L17.57,16.137L19.48,16.137L19.48,9.922L24.903,9.922L28.569,16.137L30.676,16.137L26.747,9.505C28.854,9.088 30.347,7.858 30.347,5.794ZM19.48,2.895L25.122,2.895C27.12,2.895 28.437,3.883 28.437,5.355L28.437,5.904C28.437,7.485 26.857,8.275 25.276,8.319L19.48,8.319L19.48,2.895Z" style="fill:rgb(115,115,115);fill-rule:nonzero;"/>
    <path d="M39.07,1.028L32.418,16.137L34.548,16.137L36.48,11.745L43.658,11.745L45.59,16.137L47.698,16.137L41.134,1.028L39.07,1.028ZM36.941,10.164L40.102,3.137L43.198,10.164L36.941,10.164Z" style="fill:rgb(115,115,115);fill-rule:nonzero;"/>
    <path d="M62.679,5.42L62.679,5.025C62.679,2.588 60.747,1.204 57.564,1.204L50.693,1.204L50.693,16.137L58.091,16.137C61.23,16.137 63.25,14.864 63.25,12.448L63.25,11.811C63.25,10.098 61.977,8.934 60.001,8.385C61.626,7.968 62.679,6.716 62.679,5.42ZM61.318,12.294C61.318,13.897 59.913,14.556 57.893,14.556L52.625,14.556L52.625,9.22L57.696,9.22C59.737,9.22 61.318,10.076 61.318,11.657L61.318,12.294ZM52.625,2.807L57.345,2.807C59.628,2.807 60.791,3.444 60.791,5.113L60.791,5.508C60.791,6.914 59.452,7.726 57.586,7.726L52.625,7.726L52.625,2.807Z" style="fill:rgb(115,115,115);fill-rule:nonzero;"/>
    <path d="M73.227,3.817C75.071,3.817 76.41,4.213 77.573,4.893L78.803,2.478C77.156,1.402 75.532,0.984 73.007,0.984C69.275,0.984 66.092,3.071 66.092,6.497L66.092,10.823C66.092,14.512 69.034,16.357 73.029,16.357C75.598,16.357 77.068,15.984 78.649,15.017L77.53,12.536C76.41,13.239 74.917,13.546 73.249,13.546C71.053,13.546 69.429,12.69 69.429,10.647L69.429,6.694C69.429,4.849 71.207,3.817 73.227,3.817Z" style="fill:rgb(115,115,115);fill-rule:nonzero;"/>
    <path d="M86.129,1.094L80.092,16.137L83.802,16.137L85.076,12.887L90.893,12.887L92.167,16.137L95.877,16.137L89.84,1.094L86.129,1.094ZM85.712,10.34L87.995,4.388L90.257,10.34L85.712,10.34Z" style="fill:rgb(115,115,115);fill-rule:nonzero;"/>
    <path d="M98.213,1.204L98.213,16.137L104.975,16.137C108.883,16.137 112,14.358 112,10.45L112,6.914C112,3.005 109.19,1.204 105.216,1.204L98.213,1.204ZM108.685,9.878C108.685,12.404 106.951,13.414 104.975,13.414L101.506,13.414L101.506,3.949L105.216,3.949C107.17,3.949 108.685,5.047 108.685,7.485L108.685,9.878Z" style="fill:rgb(115,115,115);fill-rule:nonzero;"/>
</svg>
