<?xml version="1.0" encoding="UTF-8" standalone="no"?>
<!DOCTYPE svg PUBLIC "-//W3C//DTD SVG 1.1//EN" "http://www.w3.org/Graphics/SVG/1.1/DTD/svg11.dtd">
<svg width="100%" height="100%" viewBox="0 0 230 45" version="1.1" xmlns="http://www.w3.org/2000/svg" xmlns:xlink="http://www.w3.org/1999/xlink" xml:space="preserve" xmlns:serif="http://www.serif.com/" style="fill-rule:evenodd;clip-rule:evenodd;stroke-linejoin:round;stroke-miterlimit:2;">
    <g>
        <path d="M98.7,13.1C98.7,11.9 98.2,11.4 97.4,11.2C96.9,11 96.8,10.9 96.8,10.4L96.8,8.3C96.8,7.9 97.3,7.7 98,7.7L107.9,7.7C108.4,7.7 108.9,7.8 108.9,8.3L108.9,40.1C108.9,40.7 109.1,40.8 109.5,40.9C110.7,41.3 110.7,41.5 110.7,43.5C110.7,44.3 110.6,44.7 109.5,44.7L97.8,44.7C97,44.7 97,44.2 97,43C97,41.4 97.4,41.3 97.8,41.1C98.4,40.9 98.7,40.7 98.7,40.1L98.7,13.1Z" style="fill:rgb(0,100,250);fill-rule:nonzero;"/>
        <path d="M179.7,32.4C176.7,32.4 176.5,32.4 176.5,34.2C176.4,39.5 173.9,41.2 171.2,41.2C169.1,41.2 167.8,39.4 167.8,36.5C167.8,36.5 167.6,34.6 168.7,33.5C169.8,32.5 170.2,32.5 174,30.9C178.6,28.9 181.5,25.4 181.5,22.1C181.5,14.9 180.4,7 170,7C163.5,7 156.4,11.7 156.4,26.1C156.4,44.5 168.9,44.8 170.5,44.8C177.9,44.8 181.8,38.9 181.8,34.1C181.6,32.5 180.9,32.4 179.7,32.4ZM167.7,13.2C167.7,12.1 168.2,10.6 169.8,10.6C171.4,10.6 171.9,11.9 171.9,13.2L171.9,19.6C171.9,19.6 172,23.6 170.5,26C169.5,27.6 167.7,29 167.7,29L167.7,13.2Z" style="fill:rgb(0,100,250);fill-rule:nonzero;"/>
        <path d="M206.3,32.4C203.3,32.4 203.2,32.4 203.1,34.2C203,39.5 200.5,41.2 197.8,41.2C195.7,41.2 194.3,39.4 194.3,36.5C194.3,36.5 194.1,34.6 195.2,33.5C196.3,32.5 196.7,32.5 200.5,30.9C205.1,28.9 208,25.4 208,22.1C208,14.9 206.9,7 196.5,7C190,7 182.9,11.7 182.9,26.1C182.9,44.5 195.4,44.8 197,44.8C204.4,44.8 208.3,38.9 208.3,34.1C208.3,32.5 207.6,32.4 206.3,32.4ZM194.4,13.2C194.4,12.1 194.9,10.6 196.5,10.6C198.1,10.6 198.6,11.9 198.6,13.2L198.6,19.6C198.6,19.6 198.7,23.6 197.3,26C196.3,27.6 194.4,29 194.4,29L194.4,13.2Z" style="fill:rgb(0,100,250);fill-rule:nonzero;"/>
        <path d="M15.6,1L1.1,1C0,1 0,1.4 0,2.4C0,4.3 0,4.5 0.8,4.8C1.6,5.2 2.3,5.7 2.3,6.7L2.3,39.8C2.3,40.2 1.7,40.5 1.3,40.7C0.7,40.9 0.6,41 0.5,41.2C0.3,41.5 0.2,41.6 0.2,42.4C0.2,43.3 0.2,44.7 1.3,44.7L14.6,44.7C15.5,44.7 15.6,44.1 15.6,43.3C15.6,41.6 15.3,41.2 14.4,40.9C13.7,40.7 13,40.3 13,38.8L13,29.8L16.5,29.8C22.2,29.8 29.4,26.8 29.4,15.4C29.3,6.6 24.1,1 15.6,1ZM17.5,22.1C17.5,24.7 16.5,26.7 14.8,26.7L12.8,26.7L12.8,4L14.2,4C16.6,4 17.4,6.3 17.4,8.6L17.4,22.1L17.5,22.1Z" style="fill:rgb(0,100,250);fill-rule:nonzero;"/>
        <path d="M44,7.3C39.8,7.3 36.7,9.5 35.9,10.3C31.7,14.1 30.4,20.3 30.4,26.6C30.4,41.4 38.3,45 43.7,45C47.7,45 57.5,42.7 57.5,25.4C57.6,10.2 48.7,7.3 44,7.3ZM46.2,37.3C46.2,38.8 45.8,41.5 43.7,41.5C41.8,41.5 41.5,39.5 41.5,37.4L41.5,14.9C41.5,13.7 41.7,10.8 43.9,10.8C45.9,10.8 46.2,12.9 46.2,14.2L46.2,37.3Z" style="fill:rgb(0,100,250);fill-rule:nonzero;"/>
        <path d="M59.3,35.7C59.2,35 60.2,34.9 62,34.9C63.2,34.9 63.5,35.2 64.4,36.5C66.8,40.4 68,40.8 69.4,40.8C70.1,40.8 70.8,40.6 70.8,39.3C70.8,37 67.2,32.3 65.3,29.8C63.6,27.6 63.2,27 62.6,26.1C60,22 58.8,19.5 58.8,15.9C58.8,8.8 63.9,7.2 66.5,7.2C67.5,7.2 68.5,7.3 70.5,8.3C71.5,8.8 71.9,8.6 72.1,8.6C72.4,8.6 72.6,8.4 72.6,8.1C72.9,7.3 73.3,7.3 75,7.3C75.9,7.3 76.2,7.3 76.4,8.1L78.2,15.7C78.5,16.8 78.2,17.1 76.4,17.1C74.7,17.1 74.3,16.8 73.4,15.5C72.2,13.8 69.8,11.1 68,11.1C67.1,11.1 66.7,11.8 66.7,12.4C66.7,13.7 69.2,17 70.4,18.5C70.4,18.5 70.5,18.8 70.7,18.9L71.6,20.2C71.8,20.4 72.7,21.4 72.9,21.6C76.2,25.8 78.9,30 78.9,35.7C78.9,42.3 74.7,44.8 71.2,44.8C70.1,44.8 69,44.6 67.1,43.6C66.6,43.4 65.9,43.1 65.4,43.1C65,43.1 65,43.6 65,43.8C64.9,44.5 64.7,44.8 62.7,44.8C61.9,44.8 61.1,44.7 60.9,43.9L59.3,35.7Z" style="fill:rgb(0,100,250);fill-rule:nonzero;"/>
        <path d="M81.9,11.4L80.3,11.4C80,11.4 79.9,11.1 79.9,10.8L79.9,8.3C79.9,8 80.7,7.8 80.9,7.8C81.9,7.6 86.9,6.2 88.1,1.6C88.2,1.2 88.4,0.5 88.9,0.5L91.5,0.5C92,0.5 92.4,0.7 92.4,1L92.4,7.8L94.7,7.8C94.9,7.8 95.3,8.1 95.3,8.3L95.3,11C95.3,11.2 95,11.5 94.6,11.5L92.3,11.5L92.3,39.5C92.3,40.8 93,41.2 93.7,41.6C94.5,41.9 94.8,42.1 94.8,44C94.8,44.4 94.8,44.7 94.5,44.7L84.2,44.7C82.5,43.4 81.9,41.4 81.9,39.5L81.9,11.4Z" style="fill:rgb(0,100,250);fill-rule:nonzero;"/>
        <path d="M124.3,11.3C126.1,9.6 128.6,7.4 132.5,7.4C136.5,7.4 138,9.9 139,11.5C141.6,9.2 143.7,7.3 147.4,7.3C151.4,7.3 154,9.7 154,13.8L154,39.8C154,40.1 154.1,40.2 154.7,40.9C155.4,41.6 155.5,41.7 155.5,42.2L155.5,44C155.5,44.3 155.3,44.6 154.9,44.6L145.6,44.6C144.3,43.5 143.8,42.6 143.8,40.5L143.8,15C143.8,14.3 142.9,13.4 141.8,13.4C140.6,13.4 139.2,14.3 139.2,15L139.2,39.7C139.2,40.4 139.3,40.7 140,41.1C140.6,41.4 140.6,41.5 140.6,41.8L140.6,44C140.6,44.3 140.3,44.6 139.9,44.6L130.5,44.6C129.8,43.9 128.9,43 128.9,40.7L128.9,14.9C128.9,14.2 128.1,13.5 127.1,13.5C126.6,13.5 125.7,13.8 124.3,14.5L124.3,39.8C124.3,40.5 124.5,40.7 125.3,41.2C125.9,41.6 125.9,41.7 125.9,41.9L125.9,44C125.9,44.3 125.6,44.6 125.2,44.6L113.3,44.6C112.8,44.6 112.3,44.3 112.3,43.9L112.3,42.1C112.3,41.8 112.3,41.7 113.2,40.9C114.1,40.1 114.1,40 114.1,39.7L114.1,12.2C114.1,11.6 113.7,11.3 113.1,11C112.9,11 112.4,10.8 112.4,10.5L112.4,8.1C112.4,8 112.8,7.8 113.2,7.8L123.8,7.8C124.1,7.8 124.4,8.2 124.4,8.5L124.3,11.3Z" style="fill:rgb(0,100,250);fill-rule:nonzero;"/>
        <path d="M210.2,35.7C210.1,35 211.1,34.9 212.9,34.9C214.1,34.9 214.4,35.2 215.3,36.5C217.7,40.4 218.9,40.8 220.3,40.8C221,40.8 221.7,40.6 221.7,39.3C221.7,37 218,32.3 216.2,29.8C214.5,27.6 214.1,27 213.5,26.1C210.9,22 209.7,19.5 209.7,15.9C209.7,8.8 214.8,7.2 217.5,7.2C218.5,7.2 219.5,7.3 221.5,8.3C222.6,8.8 222.9,8.6 223.1,8.6C223.5,8.6 223.6,8.4 223.7,8.1C224,7.3 224.4,7.3 226.1,7.3C227,7.3 227.3,7.3 227.5,8.1L229.3,15.7C229.6,16.8 229.3,17.1 227.5,17.1C225.8,17.1 225.4,16.8 224.5,15.5C223.3,13.8 220.9,11.1 219.1,11.1C218.2,11.1 217.8,11.8 217.8,12.4C217.8,13.7 220.3,17 221.4,18.5C221.4,18.5 221.6,18.8 221.8,18.9L222.7,20.2C222.9,20.4 223.8,21.4 223.9,21.6C227.2,25.8 230,30 230,35.7C230,42.3 225.8,44.8 222.2,44.8C221.2,44.8 220.1,44.6 218.2,43.6C217.7,43.4 217,43.1 216.4,43.1C216.1,43.1 216,43.6 216,43.8C215.9,44.5 215.7,44.8 213.7,44.8C212.9,44.8 212.1,44.7 211.9,43.9L210.2,35.7Z" style="fill:rgb(0,100,250);fill-rule:nonzero;"/>
        <path d="M103.1,6.5C106.3,6.5 109,5.1 109,3.3C109,1.5 106.4,0 103.1,0C99.9,0 97.2,1.4 97.2,3.3C97.3,5 99.9,6.5 103.1,6.5Z" style="fill:rgb(0,100,250);fill-rule:nonzero;"/>
    </g>
</svg>
