<svg viewBox="0 0 150 15" xmlns="http://www.w3.org/2000/svg" class="logo__svg">
    <path fill="#0c1c34" class="logo__svg-text--black" d="M0 14.7929V0.207095H12.1521C13.183 0.207095 14.083 0.379674 14.8548 0.727708C15.6237 1.07574 16.2218 1.55034 16.649 2.15436C17.0762 2.75839 17.2869 3.44871 17.2869 4.22819C17.2869 4.82646 17.1673 5.36721 16.9252 5.85331C16.6831 6.33941 16.3613 6.74497 15.9569 7.07287C15.5497 7.40077 15.094 7.6395 14.5842 7.79195C15.4358 7.79195 16.0424 7.97603 16.3984 8.3442C16.7572 8.71237 16.9338 9.24449 16.9338 9.93768V14.7929H14.0032V10.7517C14.0032 10.1822 13.8865 9.79674 13.653 9.5954C13.4194 9.39406 13.0207 9.29338 12.4568 9.29338H2.93051V14.7929H0ZM2.93051 6.70757H11.7591C12.5707 6.70757 13.2001 6.52637 13.6473 6.16683C14.0944 5.80441 14.3165 5.32694 14.3165 4.72867C14.3165 4.13039 14.0915 3.62416 13.6473 3.29051C13.2001 2.95685 12.5707 2.79003 11.7591 2.79003H2.93051V6.70757ZM20.2544 14.79V0.207095H23.185V14.7929H20.2544V14.79ZM26.5654 14.79V0.207095H35.5592C37.1825 0.207095 38.615 0.494727 39.8596 1.07287C41.1041 1.64813 42.0781 2.48226 42.7787 3.57239C43.4793 4.66251 43.8296 5.97124 43.8296 7.49856C43.8296 9.02589 43.4793 10.3576 42.7787 11.4477C42.0781 12.5379 41.1041 13.3691 39.8596 13.9386C38.615 14.5081 37.1797 14.7929 35.5592 14.7929H26.5654V14.79ZM29.496 12.2071H35.0864C36.929 12.2071 38.353 11.8102 39.3555 11.0192C40.3579 10.2282 40.862 9.05465 40.862 7.49856C40.862 5.94247 40.3608 4.75168 39.3555 3.96644C38.353 3.18121 36.929 2.79003 35.0864 2.79003H29.496V12.21V12.2071ZM59.5985 14.79H62.9391L55.1017 0.207095H51.4307L43.5932 14.79H46.8313L48.6369 11.373H57.7929L59.5985 14.79ZM50.001 8.79003L53.2135 2.71237L56.4259 8.79003H50.001ZM77.643 0.207095V11.3327L68.1736 0.207095H64.5026V14.7929H67.4332V3.67018L76.9025 14.7929H80.5735V0.207095H77.643ZM92.643 15C90.5669 15 88.8154 14.6807 87.3943 14.0422C85.9703 13.4036 84.8938 12.5177 84.1647 11.3845C83.4357 10.2541 83.0711 8.95685 83.0711 7.49856C83.0711 6.04027 83.4527 4.74592 84.216 3.61266C84.9792 2.48226 86.0842 1.59636 87.5281 0.954938C88.972 0.319271 90.7121 0 92.7455 0C94.5198 0 96.0263 0.232982 97.2652 0.698945C98.504 1.16491 99.4666 1.78907 100.153 2.5743C100.839 3.35954 101.252 4.23682 101.392 5.20901H98.0911C98.037 4.95877 97.9031 4.68265 97.6895 4.37488C97.4759 4.06999 97.1655 3.78236 96.7611 3.50911C96.3538 3.23873 95.8384 3.01726 95.2147 2.8418C94.5881 2.66922 93.8277 2.58006 92.9363 2.58006H92.5234C91.2589 2.58006 90.1368 2.76989 89.16 3.15244C88.1831 3.535 87.4199 4.09012 86.8702 4.81783C86.3206 5.54842 86.0444 6.44008 86.0444 7.49568C86.0444 8.55129 86.3064 9.4257 86.8275 10.162C87.3487 10.8984 88.092 11.4564 89.0546 11.8389C90.0172 12.2215 91.145 12.4113 92.4379 12.4113H92.8509C94.1581 12.4113 95.2517 12.2761 96.1317 12.0058C97.0117 11.7354 97.6753 11.3873 98.1224 10.9645C98.5695 10.5417 98.7917 10.0988 98.7917 9.64142V9.57814H92.4379V6.99521H101.719V14.7872H98.7917V12.8917C98.5581 13.1822 98.1936 13.4928 97.6981 13.8178C97.2025 14.1457 96.5418 14.4219 95.7188 14.652C94.8929 14.8821 93.8705 14.9971 92.6458 14.9971L92.643 15ZM122.236 4.29147C121.74 3.36242 121.054 2.57718 120.174 1.93576C119.294 1.29722 118.266 0.813998 117.09 0.488974C115.913 0.16395 114.652 0 113.305 0C111.958 0 110.679 0.16395 109.508 0.488974C108.338 0.813998 107.313 1.29722 106.424 1.93576C105.538 2.5743 104.846 3.35954 104.351 4.29147C104.197 4.58197 104.069 4.88974 103.961 5.20901H107.193C107.526 4.67114 107.968 4.21093 108.517 3.83413C109.121 3.41707 109.816 3.10355 110.602 2.89645C111.385 2.68936 112.217 2.58293 113.097 2.58293H113.51C114.39 2.58293 115.221 2.68648 116.005 2.89645C116.788 3.10355 117.48 3.41707 118.078 3.83413C118.676 4.2512 119.146 4.76606 119.49 5.37584C119.835 5.98849 120.006 6.69607 120.006 7.50144C120.006 8.30681 119.835 9.01438 119.49 9.62704C119.146 10.2397 118.676 10.7517 118.078 11.1687C117.48 11.5858 116.788 11.8993 116.005 12.1064C115.221 12.3135 114.39 12.4199 113.51 12.4199H113.097C112.217 12.4199 111.385 12.3164 110.602 12.1064C109.819 11.8993 109.124 11.5858 108.517 11.1687C107.911 10.7517 107.438 10.2397 107.093 9.62704C106.749 9.01726 106.578 8.30681 106.578 7.50144C106.578 7.32886 106.586 7.16491 106.604 7.00096H103.625C103.616 7.16491 103.607 7.33173 103.607 7.50144C103.607 8.70949 103.855 9.77948 104.351 10.7085C104.846 11.6405 105.538 12.4228 106.424 13.0614C107.31 13.6999 108.338 14.1831 109.508 14.5081C110.676 14.8332 111.943 14.9971 113.305 14.9971C114.666 14.9971 115.913 14.8332 117.09 14.5081C118.266 14.1831 119.294 13.6999 120.174 13.0614C121.054 12.4228 121.74 11.6376 122.236 10.7085C122.731 9.77948 122.979 8.70949 122.979 7.50144C122.979 6.29338 122.731 5.22339 122.236 4.29434V4.29147Z"></path>
    <path fill="#ff6050" class="logo__svg-arrow logo__svg-arrow--orange" d="M131.161 15C130.788 15 130.415 14.8562 130.13 14.5686C129.561 13.9933 129.561 13.0614 130.13 12.4861L136.097 6.46021C136.666 5.88495 137.589 5.88495 138.159 6.46021C138.728 7.03547 138.728 7.9674 138.159 8.54267L132.192 14.5686C131.907 14.8562 131.534 15 131.161 15ZM135.2 5.55129C135.769 4.97603 135.769 4.0441 135.2 3.46884L132.192 0.431448C131.623 -0.143816 130.7 -0.143816 130.13 0.431448C129.561 1.00671 129.561 1.93864 130.13 2.5139L133.138 5.55129C133.423 5.83893 133.796 5.98274 134.169 5.98274C134.542 5.98274 134.915 5.83893 135.2 5.55129ZM138.916 14.5686L144.885 8.54267C145.455 7.9674 145.455 7.03547 144.885 6.46021C144.316 5.88495 143.393 5.88495 142.824 6.46021L136.854 12.4861C136.285 13.0614 136.285 13.9933 136.854 14.5686C137.139 14.8562 137.512 15 137.885 15C138.258 15 138.631 14.8562 138.916 14.5686ZM141.924 5.55129C142.493 4.97603 142.493 4.0441 141.924 3.46884L138.916 0.431448C138.347 -0.143816 137.424 -0.143816 136.854 0.431448C136.285 1.00671 136.285 1.93864 136.854 2.5139L139.862 5.55129C140.146 5.83893 140.52 5.98274 140.893 5.98274C141.266 5.98274 141.639 5.83893 141.924 5.55129Z"></path>
</svg>